<svg id="svg" version="1.1" xmlns="http://www.w3.org/2000/svg" xmlns:xlink="http://www.w3.org/1999/xlink" width="400" height="400" viewBox="0, 0, 400,400"><g id="svgg"><path id="path0" d="M85.600 56.450 C 79.644 57.136,73.827 59.532,68.888 63.332 C 66.597 65.095,62.400 69.374,62.400 69.947 C 62.400 70.113,62.061 70.613,61.648 71.057 C 58.537 74.395,55.857 83.445,55.919 90.400 C 56.161 117.520,85.921 133.243,108.600 118.232 C 130.408 103.798,127.820 70.655,104.000 59.312 C 100.601 57.693,91.239 55.670,88.916 56.052 C 88.742 56.080,87.250 56.259,85.600 56.450 M259.600 146.587 C 244.338 148.572,229.453 156.258,220.519 166.766 C 217.127 170.756,217.095 170.798,215.381 173.614 C 212.158 178.910,212.033 178.538,211.906 163.256 L 211.800 150.600 184.200 150.600 L 156.600 150.600 156.600 245.000 L 156.600 339.400 185.500 339.503 L 214.400 339.605 214.415 290.303 C 214.431 240.198,214.586 233.989,216.008 226.600 C 219.897 206.390,230.666 197.186,250.400 197.206 C 259.898 197.216,267.017 199.718,271.345 204.566 C 275.229 208.917,277.103 212.350,278.670 217.982 C 281.425 227.886,281.595 232.045,281.597 289.700 L 281.600 339.600 310.800 339.600 L 340.000 339.600 340.000 285.222 C 340.000 231.261,339.785 219.743,338.590 209.600 C 334.185 172.211,318.602 153.067,288.000 147.453 C 280.038 145.992,267.184 145.600,259.600 146.587 M60.586 150.897 C 60.481 151.174,60.441 193.700,60.497 245.400 L 60.600 339.400 89.600 339.400 L 118.600 339.400 118.600 245.000 L 118.600 150.600 89.688 150.497 C 66.771 150.416,60.737 150.499,60.586 150.897 " stroke="none" fill="#f9fafb" fill-rule="evenodd"></path><path id="path1" d="M25.200 0.744 C 25.200 0.934,24.149 1.184,22.865 1.301 C 20.811 1.487,19.019 2.104,18.400 2.837 C 18.290 2.968,17.591 3.193,16.846 3.338 C 16.102 3.483,15.202 3.935,14.846 4.344 C 14.491 4.752,13.840 5.200,13.400 5.340 C 12.692 5.566,10.938 6.853,9.800 7.981 C 7.844 9.921,7.477 10.308,6.400 11.568 C 4.564 13.715,4.400 13.963,4.400 14.583 C 4.400 14.922,4.234 15.200,4.032 15.200 C 3.829 15.200,3.545 15.740,3.400 16.400 C 3.255 17.060,2.971 17.600,2.768 17.600 C 2.566 17.600,2.400 17.949,2.400 18.376 C 2.400 18.803,2.230 19.258,2.023 19.386 C 1.816 19.514,1.537 20.469,1.403 21.509 C 1.269 22.549,0.988 23.713,0.780 24.095 C 0.295 24.981,0.260 375.600,0.744 375.600 C 0.933 375.600,1.195 376.632,1.325 377.894 C 1.455 379.155,1.750 380.250,1.981 380.327 C 2.211 380.404,2.400 380.801,2.400 381.210 C 2.400 381.618,2.566 382.055,2.769 382.181 C 2.972 382.306,3.249 382.912,3.384 383.527 C 3.519 384.142,3.983 384.899,4.415 385.211 C 4.847 385.522,5.200 385.979,5.200 386.226 C 5.200 386.473,5.651 387.199,6.202 387.838 C 6.754 388.477,7.306 389.315,7.429 389.700 C 7.553 390.085,7.820 390.400,8.024 390.400 C 8.227 390.400,8.875 390.940,9.463 391.600 C 10.051 392.260,10.691 392.800,10.884 392.800 C 11.078 392.800,11.686 393.250,12.236 393.800 C 12.786 394.350,13.498 394.800,13.818 394.800 C 14.138 394.800,14.400 394.980,14.400 395.200 C 14.400 395.420,14.670 395.600,15.000 395.600 C 15.330 395.600,15.600 395.766,15.600 395.968 C 15.600 396.171,16.185 396.463,16.900 396.618 C 17.615 396.774,18.290 397.013,18.400 397.150 C 18.989 397.885,20.793 398.512,22.865 398.699 C 24.149 398.816,25.200 399.066,25.200 399.256 C 25.200 399.448,102.529 399.600,200.000 399.600 C 296.908 399.600,374.800 399.447,374.800 399.257 C 374.800 399.068,375.878 398.801,377.195 398.664 C 379.339 398.440,381.034 397.857,381.600 397.150 C 381.710 397.013,382.385 396.774,383.100 396.618 C 383.815 396.463,384.400 396.171,384.400 395.968 C 384.400 395.766,384.670 395.600,385.000 395.600 C 385.330 395.600,385.600 395.420,385.600 395.200 C 385.600 394.980,385.862 394.800,386.182 394.800 C 386.502 394.800,387.214 394.350,387.764 393.800 C 388.314 393.250,388.915 392.800,389.099 392.800 C 389.784 392.800,394.800 386.994,394.800 386.201 C 394.800 385.968,395.153 385.522,395.585 385.211 C 396.017 384.899,396.481 384.142,396.616 383.527 C 396.751 382.912,397.028 382.306,397.231 382.181 C 397.434 382.055,397.600 381.618,397.600 381.210 C 397.600 380.801,397.789 380.404,398.019 380.327 C 398.250 380.250,398.545 379.155,398.675 377.894 C 398.805 376.632,399.067 375.600,399.256 375.600 C 399.740 375.600,399.705 24.981,399.220 24.095 C 399.012 23.713,398.731 22.549,398.597 21.509 C 398.463 20.469,398.184 19.514,397.977 19.386 C 397.770 19.258,397.600 18.803,397.600 18.376 C 397.600 17.949,397.434 17.600,397.232 17.600 C 397.029 17.600,396.745 17.060,396.600 16.400 C 396.455 15.740,396.215 15.200,396.066 15.200 C 395.917 15.200,395.571 14.705,395.297 14.100 C 395.023 13.495,394.259 12.391,393.599 11.646 C 392.940 10.901,392.400 10.148,392.400 9.973 C 392.400 9.797,392.049 9.543,391.620 9.406 C 391.192 9.270,390.733 8.817,390.600 8.400 C 390.467 7.983,390.053 7.543,389.680 7.423 C 389.306 7.303,388.477 6.754,387.838 6.202 C 387.199 5.651,386.434 5.200,386.138 5.200 C 385.842 5.200,385.600 5.059,385.600 4.886 C 385.600 4.392,383.365 3.200,382.438 3.200 C 381.977 3.200,381.599 3.065,381.597 2.900 C 381.591 2.319,379.374 1.537,377.100 1.314 C 375.835 1.190,374.800 0.934,374.800 0.744 C 374.800 0.552,297.471 0.400,200.000 0.400 C 102.529 0.400,25.200 0.552,25.200 0.744 M96.200 56.063 C 97.740 56.315,99.171 56.674,99.380 56.861 C 99.589 57.047,100.071 57.200,100.452 57.200 C 106.893 57.200,120.859 70.946,122.602 79.000 C 122.745 79.660,123.012 80.560,123.196 81.000 C 124.762 84.756,124.758 95.705,123.190 99.400 C 123.003 99.840,122.728 100.650,122.579 101.200 C 120.976 107.099,114.685 115.346,109.029 118.964 C 106.704 120.452,101.820 122.800,101.052 122.800 C 100.781 122.800,100.389 122.956,100.180 123.146 C 99.112 124.118,92.762 124.914,87.917 124.684 C 77.439 124.186,68.406 119.419,61.986 111.000 C 60.211 108.673,57.200 103.037,57.200 102.043 C 57.200 101.667,57.039 101.189,56.843 100.980 C 55.327 99.367,54.672 87.690,55.824 82.800 C 59.449 67.413,70.514 57.702,87.000 55.440 C 88.612 55.219,92.773 55.501,96.200 56.063 M282.280 145.804 C 284.876 146.136,287.900 146.602,289.000 146.839 C 293.453 147.798,296.242 148.483,297.000 148.805 C 297.440 148.991,298.520 149.358,299.400 149.619 C 308.005 152.174,318.819 159.618,324.070 166.600 C 324.566 167.260,325.088 167.890,325.228 168.000 C 325.902 168.526,329.792 175.197,331.238 178.306 C 332.132 180.228,332.993 182.070,333.151 182.400 C 333.309 182.730,333.769 184.080,334.175 185.400 C 334.580 186.720,335.051 188.160,335.220 188.600 C 335.850 190.238,336.079 191.063,336.607 193.600 C 336.905 195.030,337.436 197.460,337.788 199.000 C 338.140 200.540,338.607 203.330,338.827 205.200 C 339.047 207.070,339.395 210.040,339.602 211.800 C 340.598 220.292,340.770 230.747,340.785 283.657 C 340.799 334.596,340.740 339.937,340.167 340.157 C 338.860 340.659,281.389 340.429,280.880 339.920 C 280.511 339.551,280.400 327.081,280.401 286.220 C 280.403 224.090,280.289 222.122,276.182 213.289 C 275.642 212.128,275.200 211.093,275.200 210.990 C 275.200 210.676,272.329 206.678,271.230 205.459 C 269.787 203.861,265.742 201.087,263.600 200.227 C 262.610 199.830,261.440 199.347,261.000 199.156 C 256.894 197.368,242.711 197.395,238.600 199.199 C 238.160 199.392,237.350 199.671,236.800 199.819 C 230.921 201.402,224.194 207.282,221.244 213.416 C 218.231 219.681,217.420 222.382,216.138 230.400 C 215.544 234.118,215.440 240.665,215.234 287.400 L 215.000 340.200 185.400 340.200 L 155.800 340.200 155.699 245.442 C 155.625 175.730,155.717 150.541,156.048 150.142 C 156.555 149.532,211.343 149.322,212.294 149.926 C 212.667 150.163,212.815 153.447,212.894 163.220 C 213.000 176.194,213.000 176.199,213.754 174.800 C 217.819 167.255,229.258 156.343,236.100 153.484 C 236.705 153.231,237.200 152.884,237.200 152.712 C 237.200 152.541,237.367 152.400,237.571 152.400 C 237.775 152.400,239.260 151.793,240.871 151.052 C 246.215 148.592,249.847 147.521,258.000 145.998 C 263.025 145.059,275.670 144.958,282.280 145.804 M118.826 150.014 C 119.786 150.528,120.077 338.963,119.120 339.920 C 118.425 340.615,60.775 340.615,60.080 339.920 C 59.381 339.221,59.381 150.779,60.080 150.080 C 60.715 149.445,117.644 149.381,118.826 150.014 " stroke="none" fill="#0474b4" fill-rule="evenodd"></path><path id="path2" d="M88.100 55.891 C 88.925 55.978,90.275 55.978,91.100 55.891 C 91.925 55.805,91.250 55.734,89.600 55.734 C 87.950 55.734,87.275 55.805,88.100 55.891 M65.375 65.700 L 64.200 67.000 65.500 65.825 C 66.712 64.730,66.984 64.400,66.675 64.400 C 66.606 64.400,66.021 64.985,65.375 65.700 M55.344 90.000 C 55.344 92.090,55.412 92.945,55.494 91.900 C 55.576 90.855,55.576 89.145,55.494 88.100 C 55.412 87.055,55.344 87.910,55.344 90.000 M124.109 90.000 C 124.109 90.990,124.187 91.395,124.282 90.900 C 124.378 90.405,124.378 89.595,124.282 89.100 C 124.187 88.605,124.109 89.010,124.109 90.000 M113.785 114.500 L 111.800 116.600 113.900 114.615 C 115.055 113.523,116.000 112.578,116.000 112.515 C 116.000 112.217,115.629 112.549,113.785 114.500 M88.905 124.687 C 89.514 124.779,90.414 124.777,90.905 124.682 C 91.397 124.587,90.900 124.511,89.800 124.514 C 88.700 124.517,88.297 124.595,88.905 124.687 M268.905 145.487 C 269.514 145.579,270.414 145.577,270.905 145.482 C 271.397 145.387,270.900 145.311,269.800 145.314 C 268.700 145.317,268.297 145.395,268.905 145.487 M262.100 145.876 C 262.485 145.976,263.115 145.976,263.500 145.876 C 263.885 145.775,263.570 145.693,262.800 145.693 C 262.030 145.693,261.715 145.775,262.100 145.876 M277.105 145.883 C 277.602 145.979,278.322 145.975,278.705 145.875 C 279.087 145.775,278.680 145.696,277.800 145.701 C 276.920 145.705,276.607 145.787,277.105 145.883 M118.800 244.920 L 119.000 339.800 119.101 245.221 C 119.156 193.202,119.066 150.506,118.901 150.341 C 118.735 150.175,118.690 192.736,118.800 244.920 M212.578 163.400 C 212.579 170.440,212.633 173.264,212.699 169.675 C 212.766 166.086,212.766 160.326,212.699 156.875 C 212.633 153.424,212.578 156.360,212.578 163.400 M222.378 163.900 L 221.000 165.400 222.500 164.022 C 223.896 162.738,224.184 162.400,223.878 162.400 C 223.812 162.400,223.137 163.075,222.378 163.900 M248.900 197.491 C 249.725 197.578,251.075 197.578,251.900 197.491 C 252.725 197.405,252.050 197.334,250.400 197.334 C 248.750 197.334,248.075 197.405,248.900 197.491 M225.775 206.100 L 224.600 207.400 225.900 206.225 C 226.615 205.579,227.200 204.994,227.200 204.925 C 227.200 204.616,226.870 204.888,225.775 206.100 M339.701 217.800 C 339.705 218.680,339.787 218.993,339.883 218.495 C 339.979 217.998,339.975 217.278,339.875 216.895 C 339.775 216.513,339.696 216.920,339.701 217.800 M340.137 225.800 C 340.139 227.560,340.209 228.230,340.293 227.289 C 340.378 226.349,340.377 224.909,340.291 224.089 C 340.205 223.270,340.136 224.040,340.137 225.800 M280.493 232.000 C 280.493 232.770,280.575 233.085,280.676 232.700 C 280.776 232.315,280.776 231.685,280.676 231.300 C 280.575 230.915,280.493 231.230,280.493 232.000 M215.301 235.000 C 215.305 235.880,215.387 236.193,215.483 235.695 C 215.579 235.198,215.575 234.478,215.475 234.095 C 215.375 233.713,215.296 234.120,215.301 235.000 M214.909 240.800 C 214.909 241.790,214.987 242.195,215.082 241.700 C 215.178 241.205,215.178 240.395,215.082 239.900 C 214.987 239.405,214.909 239.810,214.909 240.800 M280.994 289.600 C 280.994 317.210,281.042 328.505,281.100 314.700 C 281.158 300.895,281.158 278.305,281.100 264.500 C 281.042 250.695,280.994 261.990,280.994 289.600 " stroke="none" fill="#5ba4cc" fill-rule="evenodd"></path><path id="path3" d="M88.700 55.482 C 89.195 55.578,90.005 55.578,90.500 55.482 C 90.995 55.387,90.590 55.309,89.600 55.309 C 88.610 55.309,88.205 55.387,88.700 55.482 M84.900 55.876 C 85.285 55.976,85.915 55.976,86.300 55.876 C 86.685 55.775,86.370 55.693,85.600 55.693 C 84.830 55.693,84.515 55.775,84.900 55.876 M92.900 55.876 C 93.285 55.976,93.915 55.976,94.300 55.876 C 94.685 55.775,94.370 55.693,93.600 55.693 C 92.830 55.693,92.515 55.775,92.900 55.876 M114.000 65.800 C 115.417 67.230,116.667 68.400,116.777 68.400 C 116.887 68.400,115.817 67.230,114.400 65.800 C 112.983 64.370,111.733 63.200,111.623 63.200 C 111.513 63.200,112.583 64.370,114.000 65.800 M57.665 76.617 C 56.995 78.088,57.123 78.402,57.847 77.065 C 58.186 76.440,58.388 75.854,58.296 75.763 C 58.205 75.671,57.921 76.056,57.665 76.617 M122.828 81.076 C 122.918 82.115,123.544 82.996,123.572 82.124 C 123.587 81.642,123.420 81.136,123.200 81.000 C 122.980 80.864,122.813 80.898,122.828 81.076 M124.101 87.000 C 124.105 87.880,124.187 88.193,124.283 87.695 C 124.379 87.198,124.375 86.478,124.275 86.095 C 124.175 85.713,124.096 86.120,124.101 87.000 M124.109 93.200 C 124.109 94.190,124.187 94.595,124.282 94.100 C 124.378 93.605,124.378 92.795,124.282 92.300 C 124.187 91.805,124.109 92.210,124.109 93.200 M118.492 109.029 C 117.997 109.783,117.672 110.400,117.769 110.400 C 118.047 110.400,119.704 107.971,119.539 107.806 C 119.457 107.724,118.986 108.274,118.492 109.029 M63.401 112.798 C 64.060 113.567,64.645 114.272,64.700 114.365 C 64.755 114.457,64.887 114.446,64.994 114.339 C 65.101 114.233,64.516 113.528,63.695 112.773 L 62.202 111.400 63.401 112.798 M110.955 117.235 C 109.031 118.763,108.773 119.036,109.800 118.460 C 110.813 117.891,113.081 116.005,112.755 116.002 C 112.620 116.001,111.810 116.556,110.955 117.235 M85.905 124.683 C 86.402 124.779,87.122 124.775,87.505 124.675 C 87.887 124.575,87.480 124.496,86.600 124.501 C 85.720 124.505,85.407 124.587,85.905 124.683 M92.305 124.683 C 92.802 124.779,93.522 124.775,93.905 124.675 C 94.287 124.575,93.880 124.496,93.000 124.501 C 92.120 124.505,91.807 124.587,92.305 124.683 M260.400 145.591 C 259.630 145.749,260.980 145.790,263.400 145.684 C 265.820 145.577,267.875 145.425,267.967 145.345 C 268.263 145.087,261.845 145.296,260.400 145.591 M273.300 145.494 C 274.345 145.576,276.055 145.576,277.100 145.494 C 278.145 145.412,277.290 145.344,275.200 145.344 C 273.110 145.344,272.255 145.412,273.300 145.494 M279.900 145.882 C 280.395 145.978,281.205 145.978,281.700 145.882 C 282.195 145.787,281.790 145.709,280.800 145.709 C 279.810 145.709,279.405 145.787,279.900 145.882 M253.800 146.800 C 252.781 147.238,253.832 147.238,255.200 146.800 C 256.004 146.543,256.043 146.477,255.400 146.468 C 254.960 146.462,254.240 146.611,253.800 146.800 M250.200 147.600 C 249.696 147.817,249.622 147.944,250.000 147.944 C 250.330 147.944,250.960 147.789,251.400 147.600 C 251.904 147.383,251.978 147.256,251.600 147.256 C 251.270 147.256,250.640 147.411,250.200 147.600 M60.080 150.080 C 59.709 150.451,59.622 172.010,59.699 245.180 L 59.798 339.800 59.999 245.000 L 60.200 150.200 89.400 149.996 L 118.600 149.792 89.580 149.696 C 67.434 149.623,60.446 149.714,60.080 150.080 M156.048 150.142 C 155.717 150.541,155.625 175.730,155.699 245.442 L 155.800 340.200 185.312 340.303 C 208.715 340.384,214.860 340.301,215.001 339.903 C 215.099 339.626,215.229 316.180,215.290 287.800 C 215.350 259.420,215.284 237.820,215.142 239.800 C 215.001 241.780,214.866 265.135,214.842 291.700 L 214.800 340.000 185.399 340.000 L 155.998 340.000 156.099 245.100 L 156.200 150.200 184.200 149.996 L 212.200 149.792 184.349 149.696 C 161.318 149.617,156.420 149.694,156.048 150.142 M119.000 244.938 L 119.000 339.800 89.600 340.004 L 60.200 340.208 89.420 340.304 C 111.722 340.377,118.754 340.286,119.120 339.920 C 119.666 339.374,119.845 150.599,119.300 150.262 C 119.135 150.160,119.000 192.764,119.000 244.938 M314.400 157.474 C 315.170 158.093,316.790 159.494,318.000 160.587 L 320.200 162.575 318.443 160.714 C 317.477 159.691,315.857 158.290,314.843 157.601 C 313.259 156.524,313.196 156.506,314.400 157.474 M225.976 160.431 L 223.800 162.461 226.100 160.554 C 228.211 158.804,228.619 158.400,228.276 158.400 C 228.208 158.400,227.173 159.314,225.976 160.431 M322.000 164.600 C 322.746 165.370,323.447 166.000,323.557 166.000 C 323.667 166.000,323.146 165.370,322.400 164.600 C 321.654 163.830,320.953 163.200,320.843 163.200 C 320.733 163.200,321.254 163.830,322.000 164.600 M219.421 166.729 L 218.243 168.200 219.721 166.822 C 221.249 165.397,221.410 165.180,220.900 165.229 C 220.735 165.245,220.070 165.920,219.421 166.729 M333.829 185.200 C 333.976 185.750,334.264 186.470,334.467 186.800 C 334.725 187.217,334.757 187.095,334.571 186.400 C 334.424 185.850,334.136 185.130,333.933 184.800 C 333.675 184.383,333.643 184.505,333.829 185.200 M335.668 190.800 C 335.688 191.839,336.318 193.546,336.332 192.600 C 336.338 192.160,336.189 191.440,336.000 191.000 C 335.789 190.510,335.661 190.432,335.668 190.800 M245.300 197.876 C 245.685 197.976,246.315 197.976,246.700 197.876 C 247.085 197.775,246.770 197.693,246.000 197.693 C 245.230 197.693,244.915 197.775,245.300 197.876 M266.800 201.702 C 266.800 201.783,267.340 202.249,268.000 202.737 C 268.660 203.225,269.200 203.477,269.200 203.298 C 269.200 203.119,268.660 202.654,268.000 202.264 C 267.340 201.874,266.800 201.621,266.800 201.702 M269.600 203.725 C 269.600 203.794,270.185 204.379,270.900 205.025 L 272.200 206.200 271.025 204.900 C 269.930 203.688,269.600 203.416,269.600 203.725 M226.000 206.200 C 225.028 207.190,224.323 208.000,224.433 208.000 C 224.543 208.000,225.428 207.190,226.400 206.200 C 227.372 205.210,228.077 204.400,227.967 204.400 C 227.857 204.400,226.972 205.210,226.000 206.200 M273.600 208.600 C 274.281 209.590,274.928 210.400,275.038 210.400 C 275.148 210.400,274.681 209.590,274.000 208.600 C 273.319 207.610,272.672 206.800,272.562 206.800 C 272.452 206.800,272.919 207.610,273.600 208.600 M339.096 209.846 C 339.212 210.921,339.372 211.875,339.453 211.967 C 339.772 212.329,339.565 208.965,339.237 208.446 C 339.022 208.107,338.968 208.651,339.096 209.846 M275.228 211.000 C 275.228 211.220,275.486 211.850,275.800 212.400 C 276.114 212.950,276.372 213.220,276.372 213.000 C 276.372 212.780,276.114 212.150,275.800 211.600 C 275.486 211.050,275.228 210.780,275.228 211.000 M339.693 215.200 C 339.693 215.970,339.775 216.285,339.876 215.900 C 339.976 215.515,339.976 214.885,339.876 214.500 C 339.775 214.115,339.693 214.430,339.693 215.200 M340.137 219.800 C 340.139 221.560,340.209 222.230,340.293 221.289 C 340.378 220.349,340.377 218.909,340.291 218.089 C 340.205 217.270,340.136 218.040,340.137 219.800 M217.029 223.829 C 216.881 224.415,216.838 224.972,216.932 225.066 C 217.027 225.160,217.224 224.758,217.371 224.171 C 217.519 223.585,217.562 223.028,217.468 222.934 C 217.373 222.840,217.176 223.242,217.029 223.829 M340.595 282.600 C 340.595 314.280,340.642 327.181,340.700 311.269 C 340.758 295.356,340.758 269.436,340.700 253.669 C 340.642 237.901,340.595 250.920,340.595 282.600 M279.693 226.800 C 279.693 227.570,279.775 227.885,279.876 227.500 C 279.976 227.115,279.976 226.485,279.876 226.100 C 279.775 225.715,279.693 226.030,279.693 226.800 M280.101 230.200 C 280.105 231.080,280.187 231.393,280.283 230.895 C 280.379 230.398,280.375 229.678,280.275 229.295 C 280.175 228.913,280.096 229.320,280.101 230.200 M280.498 286.220 C 280.423 327.189,280.510 339.550,280.880 339.920 C 281.246 340.286,288.323 340.377,310.780 340.304 L 340.200 340.208 310.600 340.004 L 281.000 339.800 280.798 286.400 L 280.596 233.000 280.498 286.220 " stroke="none" fill="#348fc4" fill-rule="evenodd"></path><path id="path4" d="M83.400 56.406 C 82.697 56.588,83.442 56.628,85.200 56.503 C 86.850 56.385,88.275 56.224,88.367 56.144 C 88.675 55.878,84.613 56.091,83.400 56.406 M90.833 56.144 C 90.925 56.224,92.350 56.385,94.000 56.503 C 95.758 56.628,96.503 56.588,95.800 56.406 C 94.587 56.091,90.525 55.878,90.833 56.144 M79.656 57.259 C 78.917 57.472,78.390 57.723,78.485 57.818 C 78.580 57.913,79.454 57.740,80.429 57.435 C 82.418 56.811,81.745 56.658,79.656 57.259 M97.633 56.964 C 97.987 57.311,102.904 58.830,103.085 58.648 C 103.191 58.542,102.071 58.083,100.597 57.628 C 97.887 56.791,97.331 56.666,97.633 56.964 M73.900 59.627 C 73.075 60.063,72.400 60.508,72.400 60.618 C 72.400 60.727,73.120 60.449,74.000 60.000 C 74.880 59.551,75.600 59.097,75.600 58.992 C 75.600 58.730,75.597 58.731,73.900 59.627 M105.400 59.892 C 106.181 60.634,108.937 62.145,108.644 61.671 C 108.480 61.406,107.593 60.811,106.673 60.350 C 105.753 59.889,105.180 59.683,105.400 59.892 M69.344 62.552 C 67.020 64.289,62.371 68.800,62.905 68.800 C 63.058 68.800,63.952 67.966,64.892 66.947 C 65.831 65.927,67.680 64.278,69.000 63.282 C 71.836 61.142,72.238 60.800,71.924 60.800 C 71.794 60.800,70.633 61.588,69.344 62.552 M111.000 63.659 C 112.820 65.231,113.636 66.067,116.994 69.800 L 118.073 71.000 117.221 69.717 C 116.120 68.059,111.936 63.875,110.283 62.781 C 109.578 62.313,109.900 62.708,111.000 63.659 M61.600 70.400 C 61.130 71.060,60.899 71.600,61.087 71.600 C 61.274 71.600,61.746 71.060,62.136 70.400 C 62.526 69.740,62.757 69.200,62.650 69.200 C 62.542 69.200,62.070 69.740,61.600 70.400 M119.920 74.843 C 120.954 76.957,121.868 78.629,121.952 78.558 C 122.159 78.383,119.440 72.792,118.665 71.800 C 118.321 71.360,118.886 72.729,119.920 74.843 M58.883 75.263 C 57.357 78.495,56.289 81.719,57.182 80.400 C 57.405 80.070,57.597 79.530,57.609 79.200 C 57.620 78.870,58.328 77.160,59.182 75.400 C 60.035 73.640,60.671 72.138,60.596 72.063 C 60.520 71.987,59.749 73.427,58.883 75.263 M122.056 79.600 C 122.056 79.930,122.211 80.560,122.400 81.000 C 122.617 81.504,122.744 81.578,122.744 81.200 C 122.744 80.870,122.589 80.240,122.400 79.800 C 122.183 79.296,122.056 79.222,122.056 79.600 M56.200 82.800 C 56.046 83.710,56.004 84.538,56.107 84.640 C 56.210 84.743,56.413 84.077,56.560 83.160 C 56.707 82.243,56.748 81.415,56.653 81.320 C 56.558 81.224,56.354 81.890,56.200 82.800 M123.400 90.245 C 123.400 94.097,123.516 96.227,123.670 95.200 C 124.024 92.844,124.028 87.016,123.677 85.045 C 123.524 84.185,123.400 86.511,123.400 90.245 M55.714 87.000 C 55.717 88.100,55.795 88.503,55.887 87.895 C 55.979 87.286,55.977 86.386,55.882 85.895 C 55.787 85.403,55.711 85.900,55.714 87.000 M55.714 93.000 C 55.717 94.100,55.795 94.503,55.887 93.895 C 55.979 93.286,55.977 92.386,55.882 91.895 C 55.787 91.403,55.711 91.900,55.714 93.000 M56.087 96.200 C 56.091 96.640,56.232 97.540,56.400 98.200 C 56.674 99.278,56.706 99.298,56.713 98.400 C 56.717 97.850,56.576 96.950,56.400 96.400 C 56.149 95.616,56.081 95.573,56.087 96.200 M122.105 100.105 C 121.638 101.691,121.322 103.056,121.404 103.137 C 121.485 103.218,121.943 101.996,122.421 100.421 C 122.899 98.846,123.215 97.482,123.123 97.389 C 123.030 97.297,122.572 98.519,122.105 100.105 M56.800 99.718 C 56.800 100.230,58.484 104.450,58.630 104.304 C 58.713 104.220,58.409 103.173,57.955 101.976 C 57.163 99.889,56.800 99.179,56.800 99.718 M58.800 105.100 C 58.800 105.291,59.061 105.796,59.380 106.224 C 59.940 106.973,59.952 106.968,59.732 106.094 C 59.504 105.191,58.800 104.440,58.800 105.100 M118.226 108.411 C 116.209 111.678,112.801 115.281,109.628 117.500 C 106.921 119.394,105.703 120.383,106.800 119.797 C 110.729 117.697,116.992 111.619,118.969 107.985 C 120.461 105.245,120.026 105.494,118.226 108.411 M60.714 108.399 C 64.042 113.865,73.943 122.096,77.061 121.988 C 77.247 121.982,75.931 121.205,74.135 120.262 C 69.657 117.910,65.798 114.682,62.994 110.945 C 60.188 107.204,59.560 106.503,60.714 108.399 M78.000 122.341 C 78.330 122.534,79.140 122.809,79.800 122.952 C 80.568 123.118,80.784 123.084,80.400 122.859 C 80.070 122.666,79.260 122.391,78.600 122.248 C 77.832 122.082,77.616 122.116,78.000 122.341 M82.200 123.600 C 82.860 123.768,83.850 123.905,84.400 123.905 C 85.292 123.905,85.270 123.872,84.200 123.600 C 83.540 123.432,82.550 123.295,82.000 123.295 C 81.108 123.295,81.130 123.328,82.200 123.600 M95.000 123.600 L 93.800 123.905 95.000 123.913 C 95.660 123.917,96.650 123.776,97.200 123.600 L 98.200 123.280 97.200 123.287 C 96.650 123.291,95.660 123.432,95.000 123.600 M87.700 124.294 C 88.745 124.376,90.455 124.376,91.500 124.294 C 92.545 124.212,91.690 124.144,89.600 124.144 C 87.510 124.144,86.655 124.212,87.700 124.294 M267.119 145.898 C 268.944 145.972,271.824 145.972,273.519 145.897 C 275.214 145.822,273.720 145.761,270.200 145.762 C 266.680 145.762,265.294 145.824,267.119 145.898 M258.400 146.417 C 257.535 146.609,258.146 146.646,260.000 146.512 C 261.650 146.393,263.075 146.229,263.167 146.148 C 263.458 145.890,259.857 146.093,258.400 146.417 M277.233 146.149 C 277.325 146.231,279.110 146.396,281.200 146.515 C 283.910 146.669,284.426 146.636,283.000 146.400 C 280.935 146.059,276.939 145.885,277.233 146.149 M251.635 147.705 C 249.784 148.174,248.434 148.611,248.635 148.677 C 248.836 148.743,250.710 148.362,252.800 147.830 C 254.890 147.298,256.240 146.861,255.800 146.858 C 255.360 146.856,253.486 147.237,251.635 147.705 M286.800 147.200 C 287.350 147.376,288.250 147.517,288.800 147.513 C 289.698 147.506,289.678 147.474,288.600 147.200 C 286.908 146.769,285.456 146.769,286.800 147.200 M292.600 148.400 C 293.040 148.589,293.760 148.738,294.200 148.732 C 294.843 148.723,294.804 148.657,294.000 148.400 C 292.632 147.962,291.581 147.962,292.600 148.400 M246.200 149.414 C 245.200 149.896,245.166 149.951,246.000 149.748 C 247.133 149.471,248.407 148.821,247.800 148.830 C 247.580 148.833,246.860 149.096,246.200 149.414 M297.770 149.827 C 299.293 150.359,300.608 150.726,300.692 150.641 C 300.877 150.457,296.021 148.788,295.422 148.830 C 295.190 148.846,296.246 149.295,297.770 149.827 M60.448 150.542 C 60.117 150.941,60.025 176.026,60.099 245.442 L 60.200 339.800 89.500 339.903 C 105.615 339.959,118.800 339.869,118.800 339.703 C 118.800 339.536,105.705 339.400,89.700 339.400 L 60.600 339.400 60.600 245.000 L 60.600 150.600 89.662 150.600 C 105.646 150.600,118.640 150.465,118.538 150.300 C 118.169 149.703,60.946 149.942,60.448 150.542 M156.499 150.330 C 156.100 150.584,156.019 169.827,156.099 245.224 L 156.200 339.800 185.400 339.800 L 214.600 339.800 214.602 289.600 L 214.605 239.400 214.501 289.503 L 214.397 339.605 185.498 339.503 L 156.600 339.400 156.600 245.000 L 156.600 150.600 184.200 150.600 L 211.800 150.600 211.906 163.166 C 211.974 171.265,212.162 175.913,212.435 176.242 C 213.024 176.951,213.808 176.555,214.343 175.278 C 214.789 174.210,214.788 174.208,214.148 175.100 C 212.502 177.395,212.400 176.705,212.400 163.243 C 212.400 151.979,212.326 150.457,211.767 150.243 C 210.816 149.878,157.078 149.963,156.499 150.330 M303.162 151.828 C 304.351 152.368,305.392 152.742,305.474 152.659 C 305.648 152.485,301.814 150.789,301.326 150.823 C 301.147 150.836,301.973 151.288,303.162 151.828 M237.900 152.827 C 237.075 153.263,236.400 153.708,236.400 153.818 C 236.400 153.996,239.559 152.519,239.967 152.151 C 240.427 151.734,239.225 152.128,237.900 152.827 M306.000 152.958 C 306.000 153.045,306.945 153.608,308.100 154.209 C 316.301 158.478,323.350 165.556,328.691 174.886 C 329.851 176.912,330.799 178.397,330.797 178.185 C 330.785 176.615,324.590 167.464,320.869 163.520 C 316.892 159.304,306.000 151.567,306.000 152.958 M231.349 156.871 C 226.108 160.376,215.429 170.800,217.080 170.800 C 217.271 170.800,217.764 170.230,218.176 169.533 C 219.674 166.998,226.943 160.243,231.204 157.427 C 235.636 154.498,236.319 154.000,235.901 154.000 C 235.759 154.000,233.710 155.292,231.349 156.871 M216.153 171.700 C 214.776 174.036,214.686 174.235,215.387 173.400 C 216.200 172.432,216.900 171.200,216.638 171.200 C 216.533 171.200,216.315 171.425,216.153 171.700 M331.639 180.900 C 332.515 183.123,333.102 184.058,332.602 182.435 C 332.125 180.887,331.206 178.800,331.000 178.800 C 330.897 178.800,331.184 179.745,331.639 180.900 M333.029 184.400 C 333.176 184.950,333.464 185.670,333.667 186.000 C 333.925 186.417,333.957 186.295,333.771 185.600 C 333.624 185.050,333.336 184.330,333.133 184.000 C 332.875 183.583,332.843 183.705,333.029 184.400 M334.210 187.600 C 335.094 191.402,336.767 197.259,336.781 196.600 C 336.801 195.673,335.069 189.077,334.418 187.600 L 333.977 186.600 334.210 187.600 M242.600 197.606 C 241.897 197.788,242.642 197.828,244.400 197.703 C 246.050 197.585,247.475 197.424,247.567 197.344 C 247.875 197.078,243.813 197.291,242.600 197.606 M253.233 197.344 C 253.325 197.423,254.570 197.586,256.000 197.706 C 257.560 197.837,258.200 197.795,257.600 197.602 C 256.612 197.284,252.911 197.065,253.233 197.344 M238.600 198.400 C 237.581 198.838,238.632 198.838,240.000 198.400 C 240.804 198.143,240.843 198.077,240.200 198.068 C 239.760 198.062,239.040 198.211,238.600 198.400 M259.800 198.400 C 260.240 198.589,260.870 198.744,261.200 198.744 C 261.578 198.744,261.504 198.617,261.000 198.400 C 260.560 198.211,259.930 198.056,259.600 198.056 C 259.222 198.056,259.296 198.183,259.800 198.400 M235.800 199.414 C 234.800 199.896,234.766 199.951,235.600 199.748 C 236.733 199.471,238.007 198.821,237.400 198.830 C 237.180 198.833,236.460 199.096,235.800 199.414 M262.800 199.369 C 263.914 200.041,264.791 200.216,264.180 199.645 C 263.971 199.450,263.350 199.172,262.800 199.028 L 261.800 198.767 262.800 199.369 M337.287 200.200 C 337.283 200.860,337.424 201.850,337.600 202.400 L 337.920 203.400 337.913 202.400 C 337.909 201.850,337.768 200.860,337.600 200.200 L 337.295 199.000 337.287 200.200 M231.488 201.364 C 228.463 203.185,225.854 205.360,224.293 207.359 C 223.460 208.426,223.936 208.069,225.655 206.339 C 227.109 204.876,229.713 202.851,231.441 201.839 C 233.169 200.828,234.396 200.000,234.168 200.000 C 233.940 200.000,232.734 200.614,231.488 201.364 M264.800 200.194 C 264.800 200.287,265.422 200.658,266.183 201.019 C 268.161 201.957,272.485 206.039,273.996 208.393 C 275.322 210.460,275.987 211.092,275.161 209.500 C 273.363 206.034,264.800 198.343,264.800 200.194 M338.281 206.800 C 338.404 208.450,338.571 209.875,338.652 209.967 C 338.931 210.281,338.754 207.001,338.406 205.400 C 338.148 204.214,338.116 204.576,338.281 206.800 M222.079 210.300 C 220.885 211.991,219.119 215.652,219.373 215.906 C 219.498 216.031,219.600 215.964,219.600 215.757 C 219.600 215.550,220.392 213.990,221.361 212.290 C 223.173 209.110,223.440 208.369,222.079 210.300 M338.893 211.600 C 338.893 212.370,338.975 212.685,339.076 212.300 C 339.176 211.915,339.176 211.285,339.076 210.900 C 338.975 210.515,338.893 210.830,338.893 211.600 M277.029 214.000 C 277.176 214.550,277.464 215.270,277.667 215.600 C 277.925 216.017,277.957 215.895,277.771 215.200 C 277.624 214.650,277.336 213.930,277.133 213.600 C 276.875 213.183,276.843 213.305,277.029 214.000 M339.507 220.600 C 339.618 224.340,339.774 227.475,339.854 227.567 C 340.099 227.846,339.914 219.992,339.601 216.800 C 339.427 215.026,339.389 216.578,339.507 220.600 M278.056 216.800 C 278.056 217.130,278.211 217.760,278.400 218.200 C 278.617 218.704,278.744 218.778,278.744 218.400 C 278.744 218.070,278.589 217.440,278.400 217.000 C 278.183 216.496,278.056 216.422,278.056 216.800 M217.473 220.153 C 217.323 220.545,217.211 221.166,217.225 221.533 C 217.242 221.975,217.381 221.874,217.637 221.234 C 217.849 220.703,217.961 220.082,217.885 219.854 C 217.809 219.627,217.624 219.761,217.473 220.153 M278.996 220.400 C 279.717 223.878,279.987 224.665,279.752 222.600 C 279.627 221.500,279.359 220.330,279.156 220.000 C 278.892 219.569,278.847 219.681,278.996 220.400 M216.439 224.392 C 216.198 225.518,216.018 226.746,216.040 227.120 C 216.062 227.494,216.333 226.646,216.641 225.235 C 216.950 223.824,217.129 222.596,217.040 222.507 C 216.951 222.418,216.681 223.266,216.439 224.392 M280.081 225.800 C 280.075 226.460,280.210 227.900,280.382 229.000 C 280.687 230.959,280.694 230.967,280.724 229.400 C 280.740 228.520,280.605 227.080,280.423 226.200 C 280.140 224.830,280.090 224.773,280.081 225.800 M215.472 229.404 C 215.327 230.282,215.230 231.630,215.255 232.400 C 215.284 233.278,215.429 232.830,215.644 231.200 C 216.024 228.315,215.887 226.889,215.472 229.404 M340.099 284.100 L 340.000 339.600 310.800 339.600 L 281.600 339.600 281.550 288.900 C 281.523 261.015,281.356 236.940,281.180 235.400 C 280.935 233.261,280.899 233.828,281.028 237.800 C 281.121 240.660,281.197 264.825,281.198 291.500 L 281.200 340.000 310.613 340.000 C 333.774 340.000,340.066 339.894,340.215 339.500 C 340.320 339.225,340.359 314.160,340.301 283.800 L 340.197 228.600 340.099 284.100 M214.924 237.000 C 214.926 238.320,215.001 238.812,215.090 238.093 C 215.179 237.374,215.177 236.294,215.086 235.693 C 214.995 235.092,214.922 235.680,214.924 237.000 " stroke="none" fill="#88bcdc" fill-rule="evenodd"></path></g></svg>